REM DIRINDEX 1\5,1\2\6,1\2\7,1\3\8,1\3\9,1\4\10,1\4\11,1\4\12
REM DIRNAME cjc026,folder01,folder02,folder03,folder04,folder05,folder06,folder07,folder08,folder09,folder10,folder11
TITLE ""
FILE "JE_DB3000_5th_5C_24.mp3" MP3
  TRACK 01 AUDIO
    TITLE "0:"
    INDEX 01 00:00:00
  TRACK 02 AUDIO
    TITLE "6:cjc026_02721"
    INDEX 01 00:00:08
  TRACK 03 AUDIO
    TITLE "0:"
    INDEX 01 00:01:65
  TRACK 04 AUDIO
    TITLE "7:cjc026_02722"
    INDEX 01 00:02:25
  TRACK 05 AUDIO
    TITLE "0:"
    INDEX 01 00:03:39
  TRACK 06 AUDIO
    TITLE "6:cjc026_02723"
    INDEX 01 00:04:02
  TRACK 07 AUDIO
    TITLE "0:"
    INDEX 01 00:05:30
  TRACK 08 AUDIO
    TITLE "7:cjc026_02724"
    INDEX 01 00:05:67
  TRACK 09 AUDIO
    TITLE "0:"
    INDEX 01 00:07:09
  TRACK 10 AUDIO
    TITLE "6:cjc026_02725"
    INDEX 01 00:07:47
  TRACK 11 AUDIO
    TITLE "0:"
    INDEX 01 00:09:16
  TRACK 12 AUDIO
    TITLE "7:cjc026_02726"
    INDEX 01 00:09:51
  TRACK 13 AUDIO
    TITLE "0:"
    INDEX 01 00:12:15
  TRACK 14 AUDIO
    TITLE "6:cjc026_02727"
    INDEX 01 00:12:47
  TRACK 15 AUDIO
    TITLE "0:"
    INDEX 01 00:14:70
  TRACK 16 AUDIO
    TITLE "7:cjc026_02728"
    INDEX 01 00:15:33
  TRACK 17 AUDIO
    TITLE "0:"
    INDEX 01 00:16:60
  TRACK 18 AUDIO
    TITLE "6:cjc026_02729"
    INDEX 01 00:17:21
  TRACK 19 AUDIO
    TITLE "0:"
    INDEX 01 00:18:51
  TRACK 20 AUDIO
    TITLE "7:cjc026_02730"
    INDEX 01 00:19:11
  TRACK 21 AUDIO
    TITLE "0:"
    INDEX 01 00:20:25
  TRACK 22 AUDIO
    TITLE "6:cjc026_02731"
    INDEX 01 00:20:63
  TRACK 23 AUDIO
    TITLE "0:"
    INDEX 01 00:22:24
  TRACK 24 AUDIO
    TITLE "7:cjc026_02732"
    INDEX 01 00:22:61
  TRACK 25 AUDIO
    TITLE "0:"
    INDEX 01 00:24:14
  TRACK 26 AUDIO
    TITLE "6:cjc026_02733"
    INDEX 01 00:24:49
  TRACK 27 AUDIO
    TITLE "0:"
    INDEX 01 00:26:18
  TRACK 28 AUDIO
    TITLE "7:cjc026_02734"
    INDEX 01 00:26:53
  TRACK 29 AUDIO
    TITLE "0:"
    INDEX 01 00:28:08
  TRACK 30 AUDIO
    TITLE "6:cjc026_02735"
    INDEX 01 00:28:43
  TRACK 31 AUDIO
    TITLE "0:"
    INDEX 01 00:29:66
  TRACK 32 AUDIO
    TITLE "7:cjc026_02736"
    INDEX 01 00:30:28
  TRACK 33 AUDIO
    TITLE "0:"
    INDEX 01 00:31:51
  TRACK 34 AUDIO
    TITLE "6:cjc026_02737"
    INDEX 01 00:32:13
  TRACK 35 AUDIO
    TITLE "0:"
    INDEX 01 00:34:47
  TRACK 36 AUDIO
    TITLE "7:cjc026_02738"
    INDEX 01 00:35:07
  TRACK 37 AUDIO
    TITLE "0:"
    INDEX 01 00:38:28
  TRACK 38 AUDIO
    TITLE "6:cjc026_02739"
    INDEX 01 00:38:66
  TRACK 39 AUDIO
    TITLE "0:"
    INDEX 01 00:40:34
  TRACK 40 AUDIO
    TITLE "7:cjc026_02740"
    INDEX 01 00:40:69
  TRACK 41 AUDIO
    TITLE "0:"
    INDEX 01 00:44:18
  TRACK 42 AUDIO
    TITLE "6:cjc026_02741"
    INDEX 01 00:44:53
  TRACK 43 AUDIO
    TITLE "0:"
    INDEX 01 00:46:08
  TRACK 44 AUDIO
    TITLE "7:cjc026_02742"
    INDEX 01 00:46:43
  TRACK 45 AUDIO
    TITLE "0:"
    INDEX 01 00:48:01
  TRACK 46 AUDIO
    TITLE "6:cjc026_02743"
    INDEX 01 00:48:39
  TRACK 47 AUDIO
    TITLE "0:"
    INDEX 01 00:51:44
  TRACK 48 AUDIO
    TITLE "7:cjc026_02744"
    INDEX 01 00:52:04
  TRACK 49 AUDIO
    TITLE "0:"
    INDEX 01 00:53:53
  TRACK 50 AUDIO
    TITLE "6:cjc026_02745"
    INDEX 01 00:54:16
  TRACK 51 AUDIO
    TITLE "0:"
    INDEX 01 00:57:09
  TRACK 52 AUDIO
    TITLE "7:cjc026_02746"
    INDEX 01 00:57:45
  TRACK 53 AUDIO
    TITLE "0:"
    INDEX 01 00:59:46
  TRACK 54 AUDIO
    TITLE "6:cjc026_02747"
    INDEX 01 01:00:09
  TRACK 55 AUDIO
    TITLE "0:"
    INDEX 01 01:03:08
  TRACK 56 AUDIO
    TITLE "7:cjc026_02748"
    INDEX 01 01:03:43
  TRACK 57 AUDIO
    TITLE "0:"
    INDEX 01 01:05:44
  TRACK 58 AUDIO
    TITLE "6:cjc026_02749"
    INDEX 01 01:06:07
  TRACK 59 AUDIO
    TITLE "0:"
    INDEX 01 01:09:00
  TRACK 60 AUDIO
    TITLE "7:cjc026_02750"
    INDEX 01 01:09:36
  TRACK 61 AUDIO
    TITLE "0:"
    INDEX 01 01:11:53
